<?xml version="1.0" encoding="UTF-8"?>
<svg id="_图层_1" data-name="图层_1" xmlns="http://www.w3.org/2000/svg" xmlns:xlink="http://www.w3.org/1999/xlink" version="1.1" viewBox="0 0 653 411">
  <!-- Generator: Adobe Illustrator 29.0.1, SVG Export Plug-In . SVG Version: 2.1.0 Build 192)  -->
  <defs>
    <style>
      .st0 {
        mask: url(#mask);
      }

      .st1 {
        fill: #fffffe;
      }

      .st1, .st2, .st3, .st4, .st5, .st6, .st7, .st8, .st9, .st10, .st11, .st12, .st13, .st14, .st15, .st16, .st17, .st18, .st19, .st20, .st21, .st22, .st23, .st24, .st25, .st26, .st27, .st28, .st29, .st30, .st31, .st32, .st33, .st34, .st35, .st36, .st37, .st38, .st39, .st40, .st41, .st42, .st43, .st44, .st45, .st46, .st47, .st48, .st49, .st50 {
        fill-rule: evenodd;
      }

      .st2 {
        fill: #dfdfe9;
      }

      .st3 {
        fill: #b1b2ce;
      }

      .st4 {
        fill: #f7f5f7;
      }

      .st5 {
        fill: #fff;
      }

      .st6 {
        fill: #e6e6ed;
      }

      .st7 {
        fill: #c6c6d9;
      }

      .st8 {
        fill: #f2f2f5;
      }

      .st9 {
        fill: #d6d6e3;
      }

      .st10 {
        fill: #f4f3f6;
      }

      .st11 {
        fill: #c2c2d7;
      }

      .st12 {
        fill: #d1d2e0;
      }

      .st13 {
        fill: #c9cadc;
      }

      .st14 {
        fill: #faf9fa;
      }

      .st15 {
        fill: #bcbcd4;
      }

      .st16 {
        fill: #efeef3;
      }

      .st17 {
        fill: #fadbcd;
      }

      .st18 {
        fill: #f9f7f9;
      }

      .st19 {
        fill: #dedde7;
      }

      .st20 {
        fill: #ecedf2;
      }

      .st21 {
        fill: #cecfdf;
      }

      .st22 {
        fill: #d4d5e2;
      }

      .st23 {
        fill: #fcfbfc;
      }

      .st24 {
        fill: #cfcfdf;
      }

      .st25 {
        fill: #f5f3f6;
      }

      .st26 {
        fill: #ccd;
      }

      .st27 {
        fill: #345e37;
      }

      .st28 {
        fill: #bfbfd5;
      }

      .st30 {
        fill: #e8e7ee;
      }

      .st51 {
        filter: url(#filter-2);
      }

      .st52 {
        filter: url(#filter-7);
      }

      .st53 {
        filter: url(#filter-9);
      }

      .st31 {
        fill: #f0f0f4;
      }

      .st32 {
        fill: #f75f45;
      }

      .st33 {
        fill: #e1e1ea;
      }

      .st34 {
        fill: #afb0cd;
      }

      .st54 {
        opacity: .5;
      }

      .st35 {
        fill: #e5e4ec;
      }

      .st36 {
        fill: #fbfafb;
      }

      .st37 {
        fill: #dbdce7;
      }

      .st38 {
        fill: #474959;
      }

      .st39 {
        fill: #f8f6f8;
      }

      .st40 {
        fill: #eaeaf0;
      }

      .st55 {
        filter: url(#filter-11);
      }

      .st56 {
        filter: url(#filter-16);
      }

      .st57 {
        filter: url(#filter-14);
      }

      .st41 {
        fill: #f6c9b6;
      }

      .st42 {
        fill: #b9b9d2;
      }

      .st43 {
        fill: #f9f8fa;
      }

      .st44 {
        fill: url(#_未命名的渐变_24);
      }

      .st45 {
        fill: url(#_未命名的渐变_10);
      }

      .st46 {
        fill: #d9dae5;
      }

      .st47 {
        fill: #b6b6d0;
      }

      .st48 {
        fill: #faf8f9;
      }

      .st49 {
        fill: #adacca;
      }

      .st50 {
        fill: #f4f2f5;
      }
    </style>
    <filter id="filter-2" x="-9.5%" y="-12.5%" width="119.0%" height="126.2%">
      <feOffset dx="0" dy="2" in="SourceAlpha" result="shadowOffsetOuter1"/>
      <feGaussianBlur in="shadowOffsetOuter1" result="shadowBlurOuter1" stdDeviation="15"/>
      <feColorMatrix in="shadowBlurOuter1" values="0 0 0 0 0   0 0 0 0 0   0 0 0 0 0  0 0 0 0.1 0"/>
    </filter>
    <mask id="mask" x="22.5" y="-20.5" width="644" height="189" maskUnits="userSpaceOnUse">
      <g id="mask-4">
        <path id="path-3" class="st5" d="M108,56v-11.3c0-9.2,7.5-16.7,16.7-16.7h449.5c9.2,0,16.7,7.5,16.7,16.7v11.3H108Z"/>
      </g>
    </mask>
    <filter id="filter-7" x="-17.7%" y="-173.2%" width="133.3%" height="675.0%">
      <feOffset dx="-5" dy="32" in="SourceAlpha" result="shadowOffsetOuter1"/>
      <feGaussianBlur in="shadowOffsetOuter1" result="shadowBlurOuter1" stdDeviation="21.5"/>
      <feColorMatrix in="shadowBlurOuter1" values="0 0 0 0 0.2331566   0 0 0 0 0   0 0 0 0 0.494946466  0 0 0 0.2 0"/>
    </filter>
    <linearGradient id="_未命名的渐变_10" data-name="未命名的渐变 10" x1="-355.3" y1="583.1" x2="-354.3" y2="583.1" gradientTransform="translate(171700 16370) scale(483 -28)" gradientUnits="userSpaceOnUse">
      <stop offset="0" stop-color="#345e37"/>
      <stop offset="1" stop-color="#2e8b57"/>
    </linearGradient>
    <filter id="filter-9" x="-5.3%" y="-16.5%" width="110.6%" height="137.6%">
      <feOffset dx="0" dy="2" in="SourceAlpha" result="shadowOffsetOuter1"/>
      <feGaussianBlur in="shadowOffsetOuter1" result="shadowBlurOuter1" stdDeviation="5"/>
      <feColorMatrix in="shadowBlurOuter1" values="0 0 0 0 0   0 0 0 0 0   0 0 0 0 0  0 0 0 0.12 0"/>
    </filter>
    <filter id="filter-11" x="-9.2%" y="-14.9%" width="118.4%" height="134.0%">
      <feOffset dx="0" dy="2" in="SourceAlpha" result="shadowOffsetOuter1"/>
      <feGaussianBlur in="shadowOffsetOuter1" result="shadowBlurOuter1" stdDeviation="5"/>
      <feColorMatrix in="shadowBlurOuter1" values="0 0 0 0 0   0 0 0 0 0   0 0 0 0 0  0 0 0 0.12 0"/>
    </filter>
    <filter id="filter-14" x="-55.0%" y="-104.8%" width="203.5%" height="447.9%">
      <feOffset dx="-5" dy="32" in="SourceAlpha" result="shadowOffsetOuter1"/>
      <feGaussianBlur in="shadowOffsetOuter1" result="shadowBlurOuter1" stdDeviation="21.5"/>
      <feColorMatrix in="shadowBlurOuter1" values="0 0 0 0 0.2331566   0 0 0 0 0   0 0 0 0 0.494946466  0 0 0 0.2 0"/>
    </filter>
    <linearGradient id="_未命名的渐变_24" data-name="未命名的渐变 24" x1="-353.7" y1="585.6" x2="-352.7" y2="585.7" gradientTransform="translate(55489 27393.6) scale(155.6 -46.3)" gradientUnits="userSpaceOnUse">
      <stop offset="0" stop-color="#8fbc8f"/>
      <stop offset="1" stop-color="#2e8a6b"/>
    </linearGradient>
    <filter id="filter-16" x="-5.0%" y="-10.1%" width="109.9%" height="123.2%">
      <feOffset dx="0" dy="2" in="SourceAlpha" result="shadowOffsetOuter1"/>
      <feGaussianBlur in="shadowOffsetOuter1" result="shadowBlurOuter1" stdDeviation="5"/>
      <feColorMatrix in="shadowBlurOuter1" values="0 0 0 0 0   0 0 0 0 0   0 0 0 0 0  0 0 0 0.12 0"/>
    </filter>
  </defs>
  <g id="_页面-1" data-name="页面-1">
    <g id="_编组-11备份-2" data-name="编组-11备份-2">
      <path id="Fill-26" class="st21" d="M67.4,181.4v-.4c.6.6,1,1.3,1.3,2l-1.3-1.6"/>
      <g id="Fill-41">
        <g class="st51">
          <path id="path-1" class="st29" d="M108,363V42.6h0c0-8,8.5-14.6,19.1-14.6h444.9c10.5,0,19.1,6.5,19.1,14.6v320.4c0,8.8-7.2,16-16,16H124c-8.8,0-16-7.2-16-16Z"/>
        </g>
        <path id="path-11" data-name="path-1" class="st5" d="M108,363V42.6h0c0-8,8.5-14.6,19.1-14.6h444.9c10.5,0,19.1,6.5,19.1,14.6v320.4c0,8.8-7.2,16-16,16H124c-8.8,0-16-7.2-16-16Z"/>
      </g>
      <g id="_编组" data-name="编组">
        <g class="st0">
          <g id="Fill-42">
            <g class="st52">
              <path id="path-6" class="st29" d="M108,56v-11.3c0-9.2,7.5-16.7,16.7-16.7h449.5c9.2,0,16.7,7.5,16.7,16.7v11.3H108Z"/>
            </g>
            <path id="path-61" data-name="path-6" class="st45" d="M108,56v-11.3c0-9.2,7.5-16.7,16.7-16.7h449.5c9.2,0,16.7,7.5,16.7,16.7v11.3H108Z"/>
          </g>
        </g>
      </g>
      <path id="Fill-44" class="st1" d="M150,43c0,2.8-2.2,5-5,5s-5-2.2-5-5,2.2-5,5-5,5,2.2,5,5"/>
      <path id="Fill-45" class="st1" d="M174,43c0,2.8-2.2,5-5,5s-5-2.2-5-5,2.2-5,5-5,5,2.2,5,5"/>
      <path id="Fill-46" class="st1" d="M198,43c0,2.8-2.2,5-5,5s-5-2.2-5-5,2.2-5,5-5,5,2.2,5,5"/>
      <g id="_编组-22" data-name="编组-22">
        <path id="Fill-47" class="st2" d="M568,87.2c0,2.3-2,4.2-4.5,4.2s-4.5-1.9-4.5-4.2,2-4.2,4.5-4.2,4.5,1.9,4.5,4.2"/>
        <path id="Fill-48" class="st2" d="M568,112.1c0,2.3-2,4.2-4.5,4.2s-4.5-1.9-4.5-4.2,2-4.2,4.5-4.2,4.5,1.9,4.5,4.2"/>
        <path id="Fill-49" class="st2" d="M568,137c0,2.3-2,4.2-4.5,4.2s-4.5-1.9-4.5-4.2,2-4.2,4.5-4.2,4.5,1.9,4.5,4.2"/>
        <path id="Fill-50" class="st2" d="M568,162c0,2.3-2,4.2-4.5,4.2s-4.5-1.9-4.5-4.2,2-4.2,4.5-4.2,4.5,1.9,4.5,4.2"/>
        <path id="Fill-51" class="st2" d="M568,186.9c0,2.3-2,4.2-4.5,4.2s-4.5-1.9-4.5-4.2,2-4.2,4.5-4.2,4.5,1.9,4.5,4.2"/>
        <path id="Fill-52" class="st2" d="M568,211.8c0,2.3-2,4.2-4.5,4.2s-4.5-1.9-4.5-4.2,2-4.2,4.5-4.2,4.5,1.9,4.5,4.2"/>
      </g>
      <g id="Fill-99">
        <g class="st53">
          <path id="path-8" class="st29" d="M427.5,350c2.5,0,4.5-2.4,4.5-5.3v-74.4c0-2.9-2-5.3-4.5-5.3H135.5c-2.5,0-4.5,2.4-4.5,5.3v74.4c0,2.9,2,5.3,4.5,5.3h292Z"/>
        </g>
        <path id="path-81" data-name="path-8" class="st23" d="M427.5,350c2.5,0,4.5-2.4,4.5-5.3v-74.4c0-2.9-2-5.3-4.5-5.3H135.5c-2.5,0-4.5,2.4-4.5,5.3v74.4c0,2.9,2,5.3,4.5,5.3h292Z"/>
      </g>
      <g id="_编组-3" data-name="编组-3">
        <g id="Fill-99备份">
          <g class="st55">
            <path id="path-10" class="st29" d="M449.6,326h168.8c1.4,0,2.6-2.6,2.6-5.9v-82.3c0-3.2-1.2-5.9-2.6-5.9h-168.8c-1.4,0-2.6,2.6-2.6,5.9v82.3c0,3.2,1.2,5.9,2.6,5.9"/>
          </g>
          <path id="path-101" data-name="path-10" class="st23" d="M449.6,326h168.8c1.4,0,2.6-2.6,2.6-5.9v-82.3c0-3.2-1.2-5.9-2.6-5.9h-168.8c-1.4,0-2.6,2.6-2.6,5.9v82.3c0,3.2,1.2,5.9,2.6,5.9"/>
        </g>
        <polygon id="Fill-96" class="st8" points="606.6 250.7 537.4 250.7 537.4 244.6 606.6 244.6 606.6 250.7"/>
        <polygon id="Fill-97" class="st34" points="606.6 263.8 572 263.8 572 257.7 606.6 257.7 606.6 263.8"/>
        <g id="Fill-98" class="st54">
          <g class="st57">
            <path id="path-13" class="st29" d="M476.8,292.7c2.3-2.4,4.9-5,8.2-5.5,4.7-.7,8.8,2.8,12.3,6,4.1,3.8,8.7,7.7,14.2,8.7,6.9,1.3,13.7-2,19.8-5.4,5.3-2.9,10.8-6,14.5-10.7,3.7-4.5,5.7-10.4,10.4-13.9.8-.6,1.8-1.1,2.8-1.3,1.8-.2,3.5.8,4.7,2.1,3.3,3.3,4.4,8.1,6.1,12.4,1.7,4.3,4.5,8.8,9.1,9.8,5.9,1.3,11.3-3.8,14.3-9.1,3-5.2,5.4-11.4,10.6-14.4,1.6-.9,3.7-1.5,5.3-.5,1.8,1.1,2.1,3.4,2.3,5.5.8,8.5,1.6,17,2.4,25.4.3,3.5.6,12-1.5,14.9h-153.9c5.7-7.6,11.7-17.3,18.2-24.2Z"/>
          </g>
          <path id="path-131" data-name="path-13" class="st44" d="M476.8,292.7c2.3-2.4,4.9-5,8.2-5.5,4.7-.7,8.8,2.8,12.3,6,4.1,3.8,8.7,7.7,14.2,8.7,6.9,1.3,13.7-2,19.8-5.4,5.3-2.9,10.8-6,14.5-10.7,3.7-4.5,5.7-10.4,10.4-13.9.8-.6,1.8-1.1,2.8-1.3,1.8-.2,3.5.8,4.7,2.1,3.3,3.3,4.4,8.1,6.1,12.4,1.7,4.3,4.5,8.8,9.1,9.8,5.9,1.3,11.3-3.8,14.3-9.1,3-5.2,5.4-11.4,10.6-14.4,1.6-.9,3.7-1.5,5.3-.5,1.8,1.1,2.1,3.4,2.3,5.5.8,8.5,1.6,17,2.4,25.4.3,3.5.6,12-1.5,14.9h-153.9c5.7-7.6,11.7-17.3,18.2-24.2Z"/>
        </g>
      </g>
      <polygon id="Fill-100" class="st2" points="416 334 332 334 332 282 416 282 416 334"/>
      <polyline id="Fill-101" class="st34" points="403.1 301 415.9 319.6 416 334 383 334 403.1 301"/>
      <polyline id="Fill-102" class="st1" points="400.4 309.5 399.2 311.4 397 308.5 402.6 300 409 308.4 407 311.4 405.5 309.4 403.1 313 400.4 309.5"/>
      <polygon id="Fill-103" class="st34" points="377.9 313 364 334 383.4 334 388 327.7 377.9 313"/>
      <path id="Fill-104" class="st21" d="M347,300.5c0,5.2,4.3,9.5,9.5,9.5s9.5-4.3,9.5-9.5-4.3-9.5-9.5-9.5-9.5,4.3-9.5,9.5"/>
      <polyline id="Fill-105" class="st1" points="375.4 321.5 374.2 323.4 372 320.5 377.8 312 384 320.4 382 323.4 380.5 321.4 378.1 325 375.4 321.5"/>
      <polygon id="Fill-106" class="st8" points="322 287 147 287 147 282 322 282 322 287"/>
      <polygon id="Fill-107" class="st8" points="322 299 147 299 147 294 322 294 322 299"/>
      <polygon id="Fill-108" class="st8" points="322 312 147 312 147 307 322 307 322 312"/>
      <polygon id="Fill-1081" data-name="Fill-108" class="st17" points="322 333 256 333 256 328 322 328 322 333"/>
      <g id="_编组-23" data-name="编组-23">
        <path id="Fill-115" class="st2" d="M498,142c0,11.6-9.4,21-21,21s-21-9.4-21-21,9.4-21,21-21,21,9.4,21,21"/>
        <polyline id="Fill-116" class="st1" points="474.2 150.5 466.9 143.2 471.1 139 474.2 142.2 482.9 133.5 487.1 137.7 474.2 150.5"/>
      </g>
      <g id="_编组-20" data-name="编组-20">
        <path id="Fill-117" class="st23" d="M118.7,252h262.4c6,0,10.9-4.9,10.9-10.9v-119.7c0-6-4.9-10.9-10.9-10.9H118.7h261.7c6,0,10.8,4.9,10.8,10.9v119c0,6-4.9,10.9-10.8,10.9H118.7v.7"/>
        <path id="Fill-118" class="st23" d="M118.7,251.3h261.7c6,0,10.8-4.9,10.8-10.9v-119c0-6-4.9-10.9-10.8-10.9H118.7h261c6,0,10.8,4.9,10.8,10.8v118.4c0,6-4.8,10.8-10.8,10.8H118.7v.7"/>
        <path id="Fill-119" class="st23" d="M118.7,250.6h261c6,0,10.8-4.9,10.8-10.8v-118.4c0-6-4.8-10.8-10.8-10.8H118.7h260.2c6,0,10.8,4.8,10.8,10.8v117.7c0,6-4.8,10.8-10.8,10.8H118.7v.7"/>
        <path id="Fill-120" class="st23" d="M118.7,249.9h260.2c6,0,10.8-4.8,10.8-10.8v-117.7c0-6-4.8-10.8-10.8-10.8H118.7h259.5c5.9,0,10.8,4.8,10.8,10.8v117.1c0,6-4.8,10.8-10.8,10.8H118.7v.7"/>
        <path id="Fill-121" class="st23" d="M118.7,249.2h259.5c5.9,0,10.8-4.8,10.8-10.8v-117.1c0-6-4.8-10.8-10.8-10.8H118.7h258.7c5.9,0,10.7,4.8,10.7,10.8v116.4c0,5.9-4.8,10.8-10.7,10.8H118.7v.7"/>
        <path id="Fill-122" class="st36" d="M118.7,248.5h258.7c5.9,0,10.7-4.8,10.7-10.8v-116.4c0-5.9-4.8-10.8-10.7-10.8H118.7h258c5.9,0,10.7,4.8,10.7,10.7v115.8c0,5.9-4.8,10.7-10.7,10.7H118.7v.7"/>
        <path id="Fill-123" class="st14" d="M118.7,247.7h258c5.9,0,10.7-4.8,10.7-10.7v-115.8c0-5.9-4.8-10.7-10.7-10.7H118.7h257.2c5.9,0,10.7,4.8,10.7,10.7v115.1c0,5.9-4.8,10.7-10.7,10.7H118.7v.7"/>
        <path id="Fill-124" class="st14" d="M118.7,247h257.2c5.9,0,10.7-4.8,10.7-10.7v-115.1c0-5.9-4.8-10.7-10.7-10.7H118.7h256.5c5.9,0,10.6,4.8,10.6,10.7v114.5c0,5.9-4.8,10.7-10.6,10.7H118.7v.7"/>
        <path id="Fill-125" class="st48" d="M118.7,246.3h256.5c5.9,0,10.6-4.8,10.6-10.7v-114.5c0-5.9-4.8-10.7-10.6-10.7H118.7h255.8c5.9,0,10.6,4.8,10.6,10.6v113.8c0,5.9-4.7,10.6-10.6,10.6H118.7v.7"/>
        <path id="Fill-126" class="st43" d="M118.7,245.6h255.8c5.9,0,10.6-4.8,10.6-10.6v-113.8c0-5.9-4.7-10.6-10.6-10.6H118.7h255c5.8,0,10.6,4.7,10.6,10.6v113.2c0,5.9-4.7,10.6-10.6,10.6H118.7v.7"/>
        <path id="Fill-127" class="st18" d="M118.7,244.9h255c5.8,0,10.6-4.7,10.6-10.6v-113.2c0-5.9-4.7-10.6-10.6-10.6H118.7h254.3c5.8,0,10.5,4.7,10.5,10.6v112.5c0,5.8-4.7,10.6-10.5,10.6H118.7v.7"/>
        <path id="Fill-128" class="st39" d="M118.7,244.2h254.3c5.8,0,10.5-4.7,10.5-10.6v-112.5c0-5.8-4.7-10.6-10.5-10.6H118.7h253.5c5.8,0,10.5,4.7,10.5,10.5v111.9c0,5.8-4.7,10.5-10.5,10.5H118.7v.7"/>
        <path id="Fill-129" class="st4" d="M118.7,243.5h253.5c5.8,0,10.5-4.7,10.5-10.5v-111.9c0-5.8-4.7-10.5-10.5-10.5H118.7h252.8c5.8,0,10.5,4.7,10.5,10.5v111.2c0,5.8-4.7,10.5-10.5,10.5H118.7v.7"/>
        <path id="Fill-130" class="st25" d="M118.7,242.8h252.8c5.8,0,10.5-4.7,10.5-10.5v-111.2c0-5.8-4.7-10.5-10.5-10.5H118.7h252.1c5.8,0,10.4,4.7,10.4,10.5v110.6c0,5.8-4.7,10.5-10.4,10.5H118.7v.7"/>
        <path id="Fill-131" class="st10" d="M118.7,242.1h252.1c5.8,0,10.4-4.7,10.4-10.5v-110.6c0-5.8-4.7-10.5-10.4-10.5H118.7h251.3c5.8,0,10.4,4.7,10.4,10.4v109.9c0,5.8-4.7,10.4-10.4,10.4H118.7v.7"/>
        <path id="Fill-132" class="st50" d="M118.7,241.4h251.3c5.8,0,10.4-4.7,10.4-10.4v-109.9c0-5.8-4.7-10.4-10.4-10.4H118.7h250.6c5.7,0,10.4,4.7,10.4,10.4v109.3c0,5.8-4.6,10.4-10.4,10.4H118.7v.7"/>
        <path id="Fill-133" class="st31" d="M118.7,240.7h250.6c5.7,0,10.4-4.7,10.4-10.4v-109.3c0-5.7-4.6-10.4-10.4-10.4H118.7h249.8c5.7,0,10.4,4.6,10.4,10.4v108.7c0,5.7-4.6,10.4-10.4,10.4H118.7v.7"/>
        <path id="Fill-134" class="st16" d="M118.7,240h249.8c5.7,0,10.4-4.6,10.4-10.4v-108.7c0-5.7-4.6-10.4-10.4-10.4H118.7h249.1c5.7,0,10.3,4.6,10.3,10.4v108c0,5.7-4.6,10.4-10.3,10.4H118.7v.7"/>
        <path id="Fill-135" class="st20" d="M118.7,239.2h249.1c5.7,0,10.3-4.6,10.3-10.4v-108c0-5.7-4.6-10.4-10.3-10.4H118.7h248.4c5.7,0,10.3,4.6,10.3,10.3v107.4c0,5.7-4.6,10.3-10.3,10.3H118.7v.7"/>
        <path id="Fill-136" class="st40" d="M118.7,238.5h248.4c5.7,0,10.3-4.6,10.3-10.3v-107.4c0-5.7-4.6-10.3-10.3-10.3H118.7h247.6c5.7,0,10.3,4.6,10.3,10.3v106.7c0,5.7-4.6,10.3-10.3,10.3H118.7v.7"/>
        <path id="Fill-137" class="st30" d="M118.7,237.8h247.6c5.7,0,10.3-4.6,10.3-10.3v-106.7c0-5.7-4.6-10.3-10.3-10.3H118.7h246.9c5.6,0,10.2,4.6,10.2,10.3v106.1c0,5.7-4.6,10.3-10.2,10.3H118.7v.7"/>
        <path id="Fill-138" class="st6" d="M118.7,237.1h246.9c5.6,0,10.2-4.6,10.2-10.3v-106.1c0-5.7-4.6-10.3-10.2-10.3H118.7h246.1c5.6,0,10.2,4.6,10.2,10.2v105.4c0,5.6-4.6,10.2-10.2,10.2H118.7v.7"/>
        <path id="Fill-139" class="st35" d="M118.7,236.4h246.1c5.6,0,10.2-4.6,10.2-10.2v-105.4c0-5.6-4.6-10.2-10.2-10.2H118.7h245.4c5.6,0,10.2,4.6,10.2,10.2v104.8c0,5.6-4.6,10.2-10.2,10.2H118.7v.7"/>
        <path id="Fill-140" class="st33" d="M118.7,235.7h245.4c5.6,0,10.2-4.6,10.2-10.2v-104.8c0-5.6-4.6-10.2-10.2-10.2H118.7h244.6c5.6,0,10.1,4.5,10.1,10.2v104.1c0,5.6-4.5,10.2-10.1,10.2H118.7v.7"/>
        <path id="Fill-141" class="st19" d="M118.7,235h244.6c5.6,0,10.1-4.6,10.1-10.2v-104.1c0-5.6-4.5-10.2-10.1-10.2H118.7h243.9c5.6,0,10.1,4.5,10.1,10.1v103.5c0,5.6-4.5,10.1-10.1,10.1H118.7v.7"/>
        <path id="Fill-142" class="st37" d="M118.7,234.3h243.9c5.6,0,10.1-4.5,10.1-10.1v-103.5c0-5.6-4.5-10.1-10.1-10.1H118.7h243.2c5.6,0,10.1,4.5,10.1,10.1v102.8c0,5.6-4.5,10.1-10.1,10.1H118.7v.7"/>
        <path id="Fill-143" class="st46" d="M118.7,233.6h243.2c5.6,0,10.1-4.5,10.1-10.1v-102.8c0-5.6-4.5-10.1-10.1-10.1H118.7h242.4c5.5,0,10,4.5,10,10.1v102.2c0,5.6-4.5,10.1-10,10.1H118.7v.7"/>
        <path id="Fill-144" class="st9" d="M118.7,232.9h242.4c5.5,0,10-4.5,10-10.1v-102.2c0-5.6-4.5-10.1-10-10.1H118.7h241.7c5.5,0,10,4.5,10,10v101.5c0,5.5-4.5,10-10,10H118.7v.7"/>
        <path id="Fill-145" class="st22" d="M118.7,232.2h241.7c5.5,0,10-4.5,10-10v-101.5c0-5.5-4.5-10-10-10H118.7h240.9c5.5,0,10,4.5,10,10v100.9c0,5.5-4.5,10-10,10H118.7v.7"/>
        <path id="Fill-146" class="st12" d="M118.7,231.5h240.9c5.5,0,10-4.5,10-10v-100.9c0-5.5-4.5-10-10-10H118.7h240.2c5.5,0,10,4.5,10,10v100.3c0,5.5-4.5,10-10,10H118.7v.7"/>
        <path id="Fill-147" class="st24" d="M118.7,230.7h240.2c5.5,0,10-4.5,10-10v-100.3c0-5.5-4.5-10-10-10H118.7h239.5c5.5,0,9.9,4.5,9.9,10v99.6c0,5.5-4.4,10-9.9,10H118.7v.7"/>
        <path id="Fill-148" class="st26" d="M118.7,230h239.5c5.5,0,9.9-4.5,9.9-10v-99.6c0-5.5-4.4-10-9.9-10H118.7h238.7c5.5,0,9.9,4.4,9.9,9.9v99c0,5.5-4.4,9.9-9.9,9.9H118.7v.7"/>
        <path id="Fill-149" class="st13" d="M118.7,229.3h238.7c5.5,0,9.9-4.4,9.9-9.9v-99c0-5.5-4.4-9.9-9.9-9.9H118.7h238c5.4,0,9.9,4.4,9.9,9.9v98.3c0,5.5-4.4,9.9-9.9,9.9H118.7v.7"/>
        <path id="Fill-150" class="st7" d="M118.7,228.6h238c5.4,0,9.9-4.4,9.9-9.9v-98.3c0-5.5-4.4-9.9-9.9-9.9H118.7h237.2c5.4,0,9.8,4.4,9.8,9.9v97.7c0,5.4-4.4,9.9-9.8,9.9H118.7v.7"/>
        <path id="Fill-151" class="st11" d="M118.7,227.9h237.2c5.4,0,9.8-4.4,9.8-9.9v-97.7c0-5.4-4.4-9.9-9.8-9.9H118.7h236.5c5.4,0,9.8,4.4,9.8,9.8v97c0,5.4-4.4,9.8-9.8,9.8H118.7v.7"/>
        <path id="Fill-152" class="st28" d="M118.7,227.2h236.5c5.4,0,9.8-4.4,9.8-9.8v-97c0-5.4-4.4-9.8-9.8-9.8H118.7h235.8c5.4,0,9.8,4.4,9.8,9.8v96.4c0,5.4-4.4,9.8-9.8,9.8H118.7v.7"/>
        <path id="Fill-153" class="st15" d="M118.7,226.5h235.8c5.4,0,9.8-4.4,9.8-9.8v-96.4c0-5.4-4.4-9.8-9.8-9.8H118.7h235c5.4,0,9.7,4.4,9.7,9.8v95.7c0,5.4-4.4,9.8-9.7,9.8H118.7v.7"/>
        <path id="Fill-154" class="st42" d="M118.7,225.8h235c5.4,0,9.7-4.4,9.7-9.8v-95.7c0-5.4-4.4-9.8-9.7-9.8H118.7h234.3c5.4,0,9.7,4.4,9.7,9.7v95.1c0,5.4-4.3,9.7-9.7,9.7H118.7v.7"/>
        <path id="Fill-155" class="st47" d="M118.7,225.1h234.3c5.4,0,9.7-4.4,9.7-9.7v-95.1c0-5.4-4.3-9.7-9.7-9.7H118.7h233.5c5.3,0,9.7,4.3,9.7,9.7v94.4c0,5.4-4.3,9.7-9.7,9.7H118.7v.7"/>
        <path id="Fill-156" class="st3" d="M118.7,224.4h233.5c5.3,0,9.7-4.3,9.7-9.7v-94.4c0-5.4-4.3-9.7-9.7-9.7H118.7h232.8c5.3,0,9.6,4.3,9.6,9.7v93.8c0,5.3-4.3,9.7-9.6,9.7H118.7v.7"/>
        <path id="Fill-157" class="st34" d="M118.7,223.7h232.8c5.3,0,9.6-4.3,9.6-9.7v-93.8c0-5.3-4.3-9.7-9.6-9.7H118.7h232c5.3,0,9.6,4.3,9.6,9.6v93.1c0,5.3-4.3,9.6-9.6,9.6H118.7v.7"/>
        <path id="Fill-158" class="st49" d="M118.7,223h232c5.3,0,9.6-4.3,9.6-9.6v-93.1c0-5.3-4.3-9.6-9.6-9.6H118.7v112.4"/>
        <g id="Fill-159">
          <g class="st56">
            <path id="path-15" class="st29" d="M356.6,92c6.3,0,11.5,5.1,11.5,11.5v115.1c0,6.3-5.1,11.5-11.5,11.5H57.5c-6.3,0-11.5-5.1-11.5-11.5v-115.1c0-6.3,5.1-11.5,11.5-11.5h299.2Z"/>
          </g>
          <path id="path-151" data-name="path-15" class="st23" d="M356.6,92c6.3,0,11.5,5.1,11.5,11.5v115.1c0,6.3-5.1,11.5-11.5,11.5H57.5c-6.3,0-11.5-5.1-11.5-11.5v-115.1c0-6.3,5.1-11.5,11.5-11.5h299.2Z"/>
        </g>
        <polygon id="Fill-160" class="st8" points="349.5 210.9 343.6 210.9 343.6 111.2 349.5 111.2 349.5 210.9"/>
        <polygon id="Fill-161" class="st8" points="334.4 210.9 328.6 210.9 328.6 111.2 334.4 111.2 334.4 210.9"/>
        <polygon id="Fill-162" class="st8" points="319.4 210.9 313.5 210.9 313.5 111.2 319.4 111.2 319.4 210.9"/>
        <polygon id="Fill-163" class="st8" points="304.3 210.9 298.5 210.9 298.5 111.2 304.3 111.2 304.3 210.9"/>
        <polygon id="Fill-164" class="st8" points="289.3 210.9 283.4 210.9 283.4 111.2 289.3 111.2 289.3 210.9"/>
        <polygon id="Fill-165" class="st8" points="274.2 210.9 268.3 210.9 268.3 111.2 274.2 111.2 274.2 210.9"/>
        <polygon id="Fill-166" class="st32" points="349.5 210.9 343.6 210.9 343.6 167 349.5 167 349.5 210.9"/>
        <polygon id="Fill-167" class="st32" points="334.4 210.9 328.6 210.9 328.6 148.7 334.4 148.7 334.4 210.9"/>
        <polygon id="Fill-168" class="st32" points="319.4 210.9 313.5 210.9 313.5 139.5 319.4 139.5 319.4 210.9"/>
        <polygon id="Fill-169" class="st32" points="304.3 210.9 298.5 210.9 298.5 148.7 304.3 148.7 304.3 210.9"/>
        <polygon id="Fill-170" class="st32" points="289.3 210.9 283.4 210.9 283.4 130.5 289.3 130.5 289.3 210.9"/>
        <polygon id="Fill-171" class="st32" points="274.2 210.9 268.3 210.9 268.3 120.6 274.2 120.6 274.2 210.9"/>
        <path id="Fill-172" class="st21" d="M201.4,128.1c0,9,7.3,16.3,16.3,16.3s16.3-7.3,16.3-16.3-7.3-16.3-16.3-16.3-16.3,7.3-16.3,16.3"/>
        <polygon id="Fill-173" class="st8" points="192.7 118.7 61.2 118.7 61.2 114.4 192.7 114.4 192.7 118.7"/>
        <polygon id="Fill-174" class="st8" points="192.7 131.5 61.2 131.5 61.2 127.1 192.7 127.1 192.7 131.5"/>
        <polygon id="Fill-175" class="st17" points="192.7 144.3 137.6 144.3 137.6 139.9 192.7 139.9 192.7 144.3"/>
        <path id="Fill-176" class="st21" d="M201.4,191.1c0,9,7.3,16.3,16.3,16.3s16.3-7.3,16.3-16.3-7.3-16.3-16.3-16.3-16.3,7.3-16.3,16.3"/>
        <polygon id="Fill-177" class="st8" points="192.7 181.8 61.2 181.8 61.2 177.4 192.7 177.4 192.7 181.8"/>
        <polygon id="Fill-178" class="st8" points="192.7 194.6 61.2 194.6 61.2 190.2 192.7 190.2 192.7 194.6"/>
        <polygon id="Fill-179" class="st17" points="192.7 207.3 137.6 207.3 137.6 202.9 192.7 202.9 192.7 207.3"/>
      </g>
      <g id="_编组-19" data-name="编组-19">
        <path id="Fill-180" class="st41" d="M210.5,131.8s-5.5-5-5.5-12.6h-16.6s-.3,10.4-4.3,12.6h26.3"/>
        <path id="Fill-181" class="st41" d="M236.9,151.1l34.2,9.9c1.3.4,2.6.4,4,.2l36.1-7.3,2.8-7h.4c1.5.7,2.5,2.1,2.5,3.7v2.1l2.3,1,7.2,1.7,1.8,1.2h6.7l-2.4,2.2c-.4.3-.8.5-1.3.6l-16.2,2.4-7.4,1.3-29.2,12c-1.9.8-4.1.9-6.1.4l-37.2-9.3,1.7-15.1"/>
        <path id="Fill-182" class="st41" d="M160.1,151.1l-34.2,9.9c-1.3.4-2.6.4-4,.2l-36.1-7.3-2.8-7h-.4c-1.5.7-2.5,2.1-2.5,3.7v2.1l-2.3,1-7.2,1.7-1.8,1.2h-6.7l2.4,2.2c.4.3.8.5,1.3.6l16.2,2.4,7.4,1.3,29.2,12c1.9.8,4.1.9,6.1.4l37.2-9.3-1.7-15.1"/>
        <path id="Fill-183" class="st41" d="M196.4,95.7c.5-2,1.8-3.9,3.7-4.7l-2.5-2.1c1.1,0,2.2.1,3.3.5,1.1.3,2,.9,3,1.4,1.5.7,2.3.9,3,2.4.8,1.7,1.6,3.3,2.4,5,.3.7.7,1.5.9,2.2.3,1.1.4,2.3.5,3.5,0,1,.1,2,.2,3,0,.9.1,1.8,0,2.6-.1,1.1-.5,2.2-.8,3.2-.6,1.9-1.3,4.6-3,5.8-1.8,1.3-3.7,2.4-6,2.4-.5,0-1,0-1.4-.3-.4-.3-.6-.7-.9-1.2-2.6-5.5-2.8-11.7-3-17.7,0-2.1-.1-4.2.4-6.2"/>
        <polygon id="Fill-184" class="st41" points="170.8 399.7 159.3 399.7 159.3 390.1 170.8 390.1 170.8 399.7"/>
        <path id="Fill-185" class="st27" d="M161.6,396.7h9.3l1.8,5.3v2.5c0,1.4-1.1,2.5-2.5,2.5h-9.7l-10.3-3.9v-1.8c0-2.9,1.4-5.6,3.8-7.4l5.4-3.9v6.2l2.3.4"/>
        <path id="Fill-186" class="st38" d="M170.2,403.5h-9.7l-10.1-3.8c-.1.5-.2,1.1-.2,1.6v1.8l10.3,3.9h9.7c1.4,0,2.5-1.1,2.5-2.5v-2.9c-.4,1.1-1.3,1.9-2.5,1.9"/>
        <polygon id="Fill-187" class="st41" points="230.5 399.7 219.1 399.7 219.1 390.1 230.5 390.1 230.5 399.7"/>
        <path id="Fill-188" class="st38" d="M229.9,270.5c.4,3.5.6,7,.6,10.5v111.5h-11.5s-10-39-11.8-64.9c-.3-4.6-5-29.4-14.1-74.5v-13.3l32.4-2.2s2.5,16.7,4.4,32.8Z"/>
        <path id="Fill-189" class="st38" d="M159.7,272.7c-.2,2.1-.4,4.1-.4,6.2v113.8l11.5.2s7.2-38.3,11-65.8c.4-2.7,5.3-21.7,14.9-57.2v-29.9l-32.5,2s-2.6,14.4-4.5,30.7Z"/>
        <path id="Fill-190" class="st27" d="M228.2,396.7h-9.3l-1.8,5.3v2.5c0,1.4,1.1,2.5,2.5,2.5h9.7l10.3-3.9v-1.8c0-2.9-1.4-5.6-3.8-7.4l-5.4-3.9v6.2l-2.3.4"/>
        <path id="Fill-191" class="st38" d="M219.6,403.5h9.7l10.1-3.8c.1.5.2,1.1.2,1.6v1.8l-10.3,3.9h-9.7c-1.4,0-2.5-1.1-2.5-2.5v-2.9c.4,1.1,1.3,1.9,2.5,1.9"/>
        <path id="Fill-192" class="st27" d="M184.2,130.7l-12.9,4c-4.7,1.5-29,19.1-29,19.1l7.2,17.8,15.6-5.6-3.3,85.7c10-8.4,42.8,12.7,68.7-3.3,0,0-11.9-54.8-3.9-80.9l18.2,3.8,8.5-18-11.7-7.3c-2-1.3-4-2.6-5.8-4.1-4.2-3.5-9.1-6.2-14.3-7.8l-10.9-3.3h-26.3"/>
        <path id="Fill-193" class="st38" d="M178.3,98.8c-.2-2.6.2-5.1,1.4-7.5,1-1.9,2.1-3.7,3.7-5.1,3.1-2.7,10-2.2,14-2.1,1.2,0,2.5,0,3.6.6.9.4,1.7,1,2.6,1.3.6.2,1.3.2,1.9.4.9.2,1.7.6,2.4,1,.8.5,1.6,1,2.1,1.7,1.4,2,1.1,6.1.1,8.3-.3.8-.9,1.6-1.2,2.4-1.2,3-.1,6.5-.9,9.7-.6,2.2-2,4-2.9,6.1-.5,1.3-.8,2.8-1.6,4-1.6,2.4-4.5,2.7-7.1,3.2-3.2.7-4.1.1-7.5.2-5.8.1-6.5-3.6-8.3-7.3-.4-.9-1-1.6-1.3-2.5-.8-2.6-1.3-6.2-.9-8.8.3-1.8-.2-3.6-.4-5.4Z"/>
      </g>
      <g id="_编组-4" data-name="编组-4">
        <path id="Fill-110" class="st27" d="M306,386.7c.8-4.4,5.3-6.8,9.3-5.2,3,1.2,4.9,4.5,4.3,7.8-.8,4.4-5.3,6.8-9.3,5.2-3-1.2-4.9-4.5-4.3-7.8ZM325.4,391.9h3.8c.8,0,1.4-.6,1.4-1.4v-4.9c0-.8-.6-1.4-1.4-1.4h-3c-.5,0-.9-.3-1.1-.8-.1-.3-.2-.6-.3-.8-.2-.5-.1-1,.2-1.3l2.1-2.1c.5-.6.5-1.4,0-2l-3.4-3.5c-.5-.6-1.4-.6-2,0l-2.1,2.2c-.3.3-.8.4-1.3.2-.3-.1-.6-.3-.9-.4-.4-.2-.7-.6-.7-1.1v-3.1c0-.8-.6-1.4-1.4-1.4h-4.9c-.8,0-1.4.6-1.4,1.4v3c0,.5-.3.9-.8,1.1-.3.1-.6.2-.9.4-.5.2-1,.1-1.3-.2l-2.1-2.1c-.5-.6-1.4-.5-2,0l-3.4,3.5c-.5.6-.5,1.5,0,2l2.1,2.1c.3.3.4.8.2,1.3-.1.3-.3.6-.4.9-.2.4-.6.7-1.1.7h-3c-.8,0-1.4.6-1.4,1.4v4.9c0,.8.6,1.4,1.4,1.4h3c.5,0,.9.3,1.1.8.1.3.2.6.3.8.2.5.1,1-.2,1.3l-2.1,2.1c-.5.6-.5,1.5,0,2l3.5,3.5c.5.6,1.4.6,2,0l2.1-2.2c.3-.3.8-.4,1.3-.3.3.1.6.3.9.4.4.2.7.6.7,1.1v3.1c0,.8.6,1.4,1.4,1.4h4.9c.8,0,1.4-.6,1.4-1.4v-3c0-.5.3-.9.8-1.1.3-.1.6-.2.8-.3.5-.2,1-.1,1.3.2l2.1,2.1c.5.6,1.4.6,2,0l3.4-3.5c.5-.6.5-1.4,0-2l-2.1-2.2c-.3-.3-.4-.8-.2-1.3.3-.7.6-1.6.6-1.7h0Z"/>
        <path id="Fill-249" class="st27" d="M349.6,405.4c-6.3,0-11.4-5.2-11.4-11.5s5.1-11.5,11.4-11.5,11.4,5.2,11.4,11.5-5.1,11.5-11.4,11.5Z"/>
        <polyline id="Fill-250" class="st1" points="353.7 400.4 349.8 398.4 349.6 398.4 345.7 400.6 345.3 400.3 346 395.9 345.9 395.6 342.7 392.6 342.8 392.1 347.2 391.4 347.4 391.3 349.3 387.2 349.8 387.2 351.8 391.2 352 391.3 356.3 391.9 356.5 392.4 353.4 395.5 353.3 395.8 354.1 400.2 353.7 400.4"/>
      </g>
      <g id="_编组-17" data-name="编组-17">
        <g id="_编组-5" data-name="编组-5">
          <path id="Fill-31" class="st2" d="M39.5,258.5c.3-4.6.6-9.4,2.7-13.5,14.6,17.6,20,42.5,14.2,64.6l-4.3,4c-7.1-6.7-10.9-16.3-12.4-25.9-1.5-9.6-.9-19.5-.2-29.2"/>
          <path id="Fill-32" class="st2" d="M.3,283.6c.3-.4.8-.5,1.3-.6,9.5-2.1,20,.3,27.6,6.4,7.6,6.1,12.3,15.8,12.3,25.6l-2.9,3.5c-6.1,1.7-12.5-1.4-17.6-5.2-9.3-6.9-16.5-16.5-20.7-27.3-.3-.8-.6-1.7,0-2.4"/>
          <path id="Fill-33" class="st2" d="M95.1,283.1c6.5-5.3,14-10.4,22.4-9.9.9,0,1.9.3,2.3,1,.9,1.7-2,3-2.6,4.9-.3,1.1.2,2.2.4,3.4.4,2-.2,4.2-1,6.1-7.6,19.2-29.3,31.7-49.7,28.8l-2.5-4c9.2-11,19.5-21.2,30.7-30.3"/>
          <path id="Fill-34" class="st2" d="M71.2,314.5c-14.6,13.9-16.4,34.4-13.9,53.4.5,4.1-5.9,4.1-6.5,0-2.7-20.7,0-43,15.8-58,3-2.9,7.6,1.7,4.6,4.6"/>
          <path id="Fill-35" class="st2" d="M57,308c-3.1,18.2.8,36.7-1.1,55-.4,4.1-6.9,4.2-6.5,0,2-18.9-1.9-37.8,1.3-56.7.7-4.1,6.9-2.4,6.3,1.7"/>
          <path id="Fill-36" class="st2" d="M38,306.7c5.3,8,10.7,16.8,13.2,26.2,2.7,10.2,1.9,21.7,2.4,32.2.2,4.2-6.3,4.2-6.5,0-.4-9.9.3-20.9-2.2-30.5-2.2-8.8-7.6-17.2-12.6-24.7-2.3-3.5,3.3-6.7,5.6-3.3"/>
        </g>
        <path id="Fill-37" class="st34" d="M33.7,406h36.2c1.5,0,2.8-1,3.2-2.4l12.3-46.6c.6-2.1-1-4.1-3.2-4.1H21.3c-2.2,0-3.7,2-3.2,4.1l12.3,46.6c.4,1.4,1.7,2.4,3.2,2.4"/>
      </g>
    </g>
  </g>
</svg>